<?xml version="1.0" encoding="utf-8"?>
<!-- Generator: Adobe Illustrator 18.0.0, SVG Export Plug-In . SVG Version: 6.00 Build 0)  -->
<!DOCTYPE svg PUBLIC "-//W3C//DTD SVG 1.1//EN" "http://www.w3.org/Graphics/SVG/1.1/DTD/svg11.dtd">
<svg version="1.1" id="Layer_1" xmlns="http://www.w3.org/2000/svg" xmlns:xlink="http://www.w3.org/1999/xlink" x="0px" y="0px"
	 viewBox="0 0 330 330" enable-background="new 0 0 330 330" xml:space="preserve">
<g>
	<path d="M272.5,126.3v-1.7c0-47.6-38.7-86.3-86.3-86.3H80.1c-9.3,0-16.9,7.6-16.9,16.9v219.6c0,9.3,7.6,16.9,16.9,16.9
		S97,284.1,97,274.8v-62.2h82.3l48.9,71.7c3.3,4.8,8.6,7.4,14,7.4c3.3,0,6.6-1,9.5-2.9c7.7-5.3,9.7-15.8,4.4-23.5l-39.6-58.1
		C249.2,194.8,272.5,163.3,272.5,126.3z M238.7,126.3c0,28.9-23.5,52.5-52.5,52.5H97V72.1h89.2c28.9,0,52.5,23.5,52.5,52.5V126.3z"
		/>
</g>
</svg>
